<?xml version="1.0" standalone="yes"?>
<svg xmlns="http://www.w3.org/2000/svg" width="200" height="200">
<path style="fill:#040505; stroke:none;" d="M0 0L0 200L200 200L200 0L0 0z"/>
<path style="fill:#d44b31; stroke:none;" d="M95 91C93.9125 86.5026 94.1787 82.8642 89 82C89.726 78.5259 89.5661 72.4183 91.838 69.6196C96.7485 63.5704 109.038 65.7111 112.682 72.1049C114.785 75.7943 114 80.9147 114 85C117.735 79.5329 115.967 70.4062 116.001 64C116.032 57.9674 118.859 52.0109 117.772 46C115.449 33.1555 94.3149 32.1238 86.1335 39.3943C78.5946 46.0938 84.5522 64.9788 85.3858 74C85.7194 77.6107 85.101 81.4169 86.6173 84.8256C88.2569 88.5116 91.3175 90.0282 95 91z"/>
<path style="fill:#dcaa48; stroke:none;" d="M83 63L83 66L80 67L81 69L79 69L80 72L77 80C80.6123 80 78.4766 84.4129 78 87L80 91L81 92L83 91C84.9843 103.586 103.333 103.701 111.985 98.3873C117.435 95.0403 120.13 89.4675 123 84L124 88L125 88C124.835 80.2531 122.358 73.6964 116 69L121 76L116 77L115 85L114 85C114 80.7604 114.98 74.9912 112.682 71.2137C109.113 65.3467 96.2062 63.6818 91.6944 69.189C89.2168 72.2134 89.3698 78.2517 89 82C93.7408 83.4392 93.6784 86.704 95 91C83.6357 86.5399 85.0012 73.4619 85 63L83 63z"/>
<path style="fill:#d44b31; stroke:none;" d="M81 65L82 66L81 65z"/>
<path style="fill:#f0f0ef; stroke:none;" d="M82 65L83 66L82 65M81 67L82 68L81 67M80 68L81 69L80 68M81 69L82 70L81 69z"/>
<path style="fill:#6696a6; stroke:none;" d="M117 69L118 70L117 69M116 70L116 77L121 76L116 70M118 70L119 71L118 70M78 71L79 72L78 71z"/>
<path style="fill:#f0f0ef; stroke:none;" d="M79 71L80 72L79 71z"/>
<path style="fill:#6696a6; stroke:none;" d="M119 71L120 72L119 71z"/>
<path style="fill:#f0f0ef; stroke:none;" d="M79 73L80 74L79 73M78 74L78 77L79 77L78 74z"/>
<path style="fill:#6696a6; stroke:none;" d="M121 74L122 75L121 74M77.3333 75.6667L77.6667 76.3333L77.3333 75.6667z"/>
<path style="fill:#d44b31; stroke:none;" d="M107.667 75.3333L108.333 75.6667L107.667 75.3333M123.333 77.6667L123.667 78.3333L123.333 77.6667z"/>
<path style="fill:#6696a6; stroke:none;" d="M76 78L73 88L77 88L77 95L76 95L75 93L74 93L72 97L71 97L71 94L70 94C68.2957 116.377 93.8859 126.424 113 119.441C123.806 115.494 132.767 106.04 130 94L125 95L123 89L125 90L125 89L123 84C113.246 97.0885 98.3972 110.806 83.4676 93.9066C79.0963 88.9586 79.416 82.9933 76 78z"/>
<path style="fill:#d44b31; stroke:none;" d="M104 78L104 80L106 78L104 78z"/>
<path style="fill:#f0f0ef; stroke:none;" d="M78 79L78 85L79 85L78 79M120 80L121 81L120 80z"/>
<path style="fill:#d44b31; stroke:none;" d="M124 80L125 81L124 80z"/>
<path style="fill:#6696a6; stroke:none;" d="M124 81L125 82L124 81z"/>
<path style="fill:#dcaa48; stroke:none;" d="M89.3333 83.6667L89.6667 84.3333L89.3333 83.6667M92 84L92 87L93 87L92 84z"/>
<path style="fill:#d44b31; stroke:none;" d="M108 85L111 87L108 85z"/>
<path style="fill:#6696a6; stroke:none;" d="M125 85L125 88L126 88L125 85z"/>
<path style="fill:#f0f0ef; stroke:none;" d="M79 86L79 89L80 89L79 86M80 89L81 90L80 89z"/>
<path style="fill:#6696a6; stroke:none;" d="M73.3333 90.6667L73.6667 91.3333L73.3333 90.6667z"/>
<path style="fill:#f0f0ef; stroke:none;" d="M81 90L82 91L81 90z"/>
<path style="fill:#6696a6; stroke:none;" d="M126 90L127 91L126 90z"/>
<path style="fill:#f0f0ef; stroke:none;" d="M82.3333 91.6667L82.6667 92.3333L82.3333 91.6667M86 91L87 92L86 91z"/>
<path style="fill:#040505; stroke:none;" d="M122 91L123 92L122 91z"/>
<path style="fill:#6696a6; stroke:none;" d="M72 93L73 94L72 93z"/>
<path style="fill:#040505; stroke:none;" d="M123 93L121 96L125 96L123 93M74 95L75 96L74 95M78 95L79 96L78 95z"/>
<path style="fill:#f0f0ef; stroke:none;" d="M85 95L86 96L85 95z"/>
<path style="fill:#6696a6; stroke:none;" d="M122 95L123 96L122 95z"/>
<path style="fill:#040505; stroke:none;" d="M126.667 95.3333L127.333 95.6667L126.667 95.3333M129 96L129 100L130 100L129 96M70 99L71 100L70 99M119 99L120 100L119 99M118 101L119 102L118 101M82 103L83 104L82 103M122 104L123 105L122 104z"/>
<path style="fill:#dcaa48; stroke:none;" d="M85 105C89.4007 113.726 108.523 113.557 113 105C101.697 109.636 96.2734 108.498 85 105z"/>
<path style="fill:#d44b31; stroke:none;" d="M114 105L111 109L114 105z"/>
<path style="fill:#040505; stroke:none;" d="M116 106L117 107L116 106z"/>
<path style="fill:#d44b31; stroke:none;" d="M88 108L89 109L88 108M92 110L93 111L92 110M107 110L108 111L107 110z"/>
<path style="fill:#6696a6; stroke:none;" d="M27 130L26 143L27 143L27 131L29 131L29 142L30 142L29 130L27 130M35 130L35 131L38 131L35 130M39 130L39 131L43 132L43 131L39 130M48 130L48 131L51 131L48 130M52 130L52 131L60 131L52 130M64 130L64 131L75 131L75 133L67 133L67 134L75 134L74 147L76 131L84 131L64 130M90.6667 130.333L91.3333 130.667L90.6667 130.333z"/>
<path style="fill:#dcaa48; stroke:none;" d="M92 130L93 131L92 130z"/>
<path style="fill:#6696a6; stroke:none;" d="M93.6667 130.333L94.3333 130.667L93.6667 130.333M96 131L96 132L109 131L96 131M111 131L111 132L116 132L111 131M121.667 130.333L122.333 130.667L121.667 130.333M129 130L129 131L132 131L129 130M133 130L133 131L141 131L133 130M145 130L145 131L148 131L145 130M149 146L150 146L152 131C146.858 130.877 148.298 142.368 149 146M159 130L159 131L161 146L162 146C162.579 140.823 163.966 132.931 159 130M166 130L166 131L170 131L166 130z"/>
<path style="fill:#f0f0ef; stroke:none;" d="M27 131C27 134.632 26.1846 139.48 27.6034 142.891C29.266 146.889 34.4935 147.553 36.821 143.771C38.9334 140.338 38 134.861 38 131L35 131C35 144.557 29 144.557 29 131L27 131M39 131L39 146L42 146L42 137L43 137C44.6062 141.233 46.5369 144.627 51 146L51 131L48 131L48 140L39 131M52 131L52 146C66.4213 145.989 66.4213 131.011 52 131z"/>
<path style="fill:#6696a6; stroke:none;" d="M61 131L62 132L61 131z"/>
<path style="fill:#f0f0ef; stroke:none;" d="M64 131L64 146L75 146L75 144L67 144L67 140L72 140L72 137L67 137L67 133L75 133L75 131L64 131M76 131L76 146L78 146L78 140C79.7164 140.882 101.134 153.35 97.2878 141.194C96.2378 137.876 91.6829 136.24 90 133L98 136L102 133L102 146L104 146C104 140.609 102.897 134.853 109 133L109 131C101.467 131 92.314 129.459 86 134C83.6677 130.402 79.9871 131.003 76 131z"/>
<path style="fill:#6696a6; stroke:none;" d="M88 131L89 132L88 131z"/>
<path style="fill:#f0f0ef; stroke:none;" d="M112 131L107 146L123 146L123 137L124 137L132 146L132 131L129 131L129 140L128 140L121 131L121 145L112 131z"/>
<path style="fill:#dcaa48; stroke:none;" d="M120 131L119 145C122.259 142.152 121.58 134.766 120 131M123 131L124 132L123 131z"/>
<path style="fill:#f0f0ef; stroke:none;" d="M133 131L133 146C147.83 147.236 147.37 131.011 133 131z"/>
<path style="fill:#6696a6; stroke:none;" d="M142 131L143 132L142 131z"/>
<path style="fill:#f0f0ef; stroke:none;" d="M145 131L145 146L148 146L148 131L145 131M150 131L150 146L152 146L152 137L153 137L161 146L161 131L159 131L159 140L153 131L150 131z"/>
<path style="fill:#dcaa48; stroke:none;" d="M158 131L157 140C159.641 137.693 159.296 134.089 158 131M164 131L165 132L164 131z"/>
<path style="fill:#f0f0ef; stroke:none;" d="M173 138L168 138L171 141L171 143C163.11 143.683 163.386 131.52 173 136C170.36 127.302 161.308 132.117 162.204 139.996C163.341 150.001 172.897 146.652 173 138z"/>
<path style="fill:#6696a6; stroke:none;" d="M171 131L172 132L171 131M62 132L63 133L62 132M87 132L88 133L87 132z"/>
<path style="fill:#dcaa48; stroke:none;" d="M111 132L112 133L111 132z"/>
<path style="fill:#6696a6; stroke:none;" d="M143 132L144 133L143 132M153 132L154 133L153 132z"/>
<path style="fill:#dcaa48; stroke:none;" d="M172 132L173 133L172 132z"/>
<path style="fill:#6696a6; stroke:none;" d="M43 133L44 134L43 133M55 133L55 134L59 134L55 133z"/>
<path style="fill:#dcaa48; stroke:none;" d="M78 133L79 134L78 133z"/>
<path style="fill:#6696a6; stroke:none;" d="M78 137L79 137L79 134L83 136C83.6978 131.772 78.8431 133.804 78 137M86 133L87 134L86 133M90 133L91 134L90 133M93 133L94 134L93 133M98 133L98 134L101 134L101 146L102 146L102 133L98 133M105 133L105 134L109 134L105 133M136 133L136 144L137 144C137.003 140.013 136.402 136.332 140 134L136 133z"/>
<path style="fill:#dcaa48; stroke:none;" d="M140 133L141 134L140 133z"/>
<path style="fill:#6696a6; stroke:none;" d="M166 133L167 134L166 133M169 133L170 134L169 133z"/>
<path style="fill:#040505; stroke:none;" d="M55 134L55 144C60.6102 143.064 59.9963 138.849 60 134L55 134z"/>
<path style="fill:#6696a6; stroke:none;" d="M63 134L63 143L64 143L63 134z"/>
<path style="fill:#040505; stroke:none;" d="M67 134L67 137L73 137L73 140L67 140L67 144L75 144L75 134L67 134M79 134L79 137L83 137L83 134L79 134z"/>
<path style="fill:#dcaa48; stroke:none;" d="M104 134L102 146L102 147C106.017 144.396 105.732 138.128 104 134z"/>
<path style="fill:#6696a6; stroke:none;" d="M110 134L111 135L110 134M116 134L117 135L116 134M125 134L126 135L125 134z"/>
<path style="fill:#040505; stroke:none;" d="M137 134L137 144C141.7 142.44 140.997 138.346 141 134L137 134z"/>
<path style="fill:#6696a6; stroke:none;" d="M144 134L144 144L145 144L144 134z"/>
<path style="fill:#040505; stroke:none;" d="M148 134L148 141L149 141L148 134z"/>
<path style="fill:#6696a6; stroke:none;" d="M154 134L155 135L154 134M165 134L165 143L166 143L165 134z"/>
<path style="fill:#dcaa48; stroke:none;" d="M170 134L171 135L170 134z"/>
<path style="fill:#6696a6; stroke:none;" d="M173 134L174 135L173 134z"/>
<path style="fill:#dcaa48; stroke:none;" d="M110 135L111 136L110 135z"/>
<path style="fill:#6696a6; stroke:none;" d="M141 135L141 142L142 142L141 135M170 135L171 136L170 135z"/>
<path style="fill:#dcaa48; stroke:none;" d="M173 135L174 136L173 135z"/>
<path style="fill:#6696a6; stroke:none;" d="M45 136L46 137L45 136z"/>
<path style="fill:#dcaa48; stroke:none;" d="M83 136L84 137L83 136M86 136L87 137L86 136z"/>
<path style="fill:#6696a6; stroke:none;" d="M91 136L92 137L91 136M96.6667 136.333L97.3333 136.667L96.6667 136.333z"/>
<path style="fill:#040505; stroke:none;" d="M113 136L112 141L115 141L113 136z"/>
<path style="fill:#dcaa48; stroke:none;" d="M126 136L127 137L126 136z"/>
<path style="fill:#6696a6; stroke:none;" d="M171.667 136.333L172.333 136.667L171.667 136.333M42 137L43 138L42 137M72 137L72 140L73 140L72 137z"/>
<path style="fill:#dcaa48; stroke:none;" d="M81 137L82 138L81 137z"/>
<path style="fill:#6696a6; stroke:none;" d="M86 137L87 138L86 137z"/>
<path style="fill:#040505; stroke:none;" d="M87 137L85 142L95 143L95 141L87 137z"/>
<path style="fill:#dcaa48; stroke:none;" d="M93 137L94 138L93 137z"/>
<path style="fill:#6696a6; stroke:none;" d="M109 137L110 138L109 137z"/>
<path style="fill:#dcaa48; stroke:none;" d="M114 137L115 138L114 137z"/>
<path style="fill:#6696a6; stroke:none;" d="M117 137L118 138L117 137M123 137L123 146L124 146L123 137M127 137L128 138L127 137z"/>
<path style="fill:#dcaa48; stroke:none;" d="M152 137L153 138L152 137z"/>
<path style="fill:#6696a6; stroke:none;" d="M156 137L157 138L156 137M46 138L47 139L46 138z"/>
<path style="fill:#dcaa48; stroke:none;" d="M60 138L61 139L60 138M85 138L86 139L85 138M95 138L96 139L95 138M109 138L110 139L109 138z"/>
<path style="fill:#6696a6; stroke:none;" d="M112 138L113 139L112 138M114 138L115 139L114 138z"/>
<path style="fill:#dcaa48; stroke:none;" d="M117 138L118 139L117 138z"/>
<path style="fill:#6696a6; stroke:none;" d="M152 138L152 146L153 146L154 138L152 138M167.333 138.667L167.667 139.333L167.333 138.667M173 138L174 139L173 138M47 139L48 140L47 139M84.3333 139.667L84.6667 140.333L84.3333 139.667M90 139L91 140L90 139z"/>
<path style="fill:#dcaa48; stroke:none;" d="M91 139L92 140L91 139z"/>
<path style="fill:#6696a6; stroke:none;" d="M128 139L129 140L128 139z"/>
<path style="fill:#dcaa48; stroke:none;" d="M173.333 139.667L173.667 140.333L173.333 139.667z"/>
<path style="fill:#6696a6; stroke:none;" d="M44 140L45 141L44 140M78 140L78 147L79 147L78 140M93 140L94 141L93 140M118 140L119 141L118 140M125 140L126 141L125 140M168.667 140.333L169.333 140.667L168.667 140.333M81 141L82 142L81 141M86 141L85 143L87 143L86 141M89 141L90 142L89 141M108 141L109 142L108 141z"/>
<path style="fill:#dcaa48; stroke:none;" d="M118 141L119 142L118 141M126 141L127 142L126 141z"/>
<path style="fill:#6696a6; stroke:none;" d="M155 141L156 142L155 141M170.333 141.667L170.667 142.333L170.333 141.667M173 141L173 144L174 144L173 141z"/>
<path style="fill:#dcaa48; stroke:none;" d="M29 142L30 143L29 142z"/>
<path style="fill:#6696a6; stroke:none;" d="M45 142L46 143L45 142z"/>
<path style="fill:#dcaa48; stroke:none;" d="M89 142L90 143L89 142M141 142L142 143L141 142z"/>
<path style="fill:#040505; stroke:none;" d="M148.333 142.667L148.667 143.333L148.333 142.667z"/>
<path style="fill:#dcaa48; stroke:none;" d="M162 142L163 143L162 142z"/>
<path style="fill:#6696a6; stroke:none;" d="M30 143L31 144L30 143z"/>
<path style="fill:#dcaa48; stroke:none;" d="M37 143L38 144L37 143M46 143L47 144L46 143M59 143L60 144L59 143z"/>
<path style="fill:#6696a6; stroke:none;" d="M82 143L83 144L82 143z"/>
<path style="fill:#040505; stroke:none;" d="M86 143L87 144L86 143z"/>
<path style="fill:#6696a6; stroke:none;" d="M90 143L91 144L90 143M94 143L95 144L94 143M119 143L120 144L119 143M127 143L128 144L127 143M140 143L141 144L140 143M156 143L157 144L156 143M166 143L167 144L166 143z"/>
<path style="fill:#dcaa48; stroke:none;" d="M27 144L28 145L27 144z"/>
<path style="fill:#6696a6; stroke:none;" d="M62 144L63 145L62 144M86 144L87 145L86 144M97 144L98 145L97 144M107 144L108 145L107 144z"/>
<path style="fill:#dcaa48; stroke:none;" d="M110 144L111 145L110 144z"/>
<path style="fill:#6696a6; stroke:none;" d="M116 144L117 145L116 144z"/>
<path style="fill:#dcaa48; stroke:none;" d="M157 144L158 145L157 144M28 145L29 146L28 145z"/>
<path style="fill:#6696a6; stroke:none;" d="M36 145L37 146L36 145M47 145L48 146L47 145z"/>
<path style="fill:#dcaa48; stroke:none;" d="M61 145L62 146L61 145z"/>
<path style="fill:#6696a6; stroke:none;" d="M83 145L84 146L83 145M110 145L111 146L110 145M128 145L129 146L128 145M29 146L30 147L29 146z"/>
<path style="fill:#dcaa48; stroke:none;" d="M30 146L31 147L30 146z"/>
<path style="fill:#6696a6; stroke:none;" d="M34 146L35 147L34 146M39 146L40 147L39 146z"/>
<path style="fill:#dcaa48; stroke:none;" d="M40.6667 146.333L41.3333 146.667L40.6667 146.333M48.6667 146.333L49.3333 146.667L48.6667 146.333z"/>
<path style="fill:#6696a6; stroke:none;" d="M50 146L51 147L50 146M52 146L53 147L52 146z"/>
<path style="fill:#dcaa48; stroke:none;" d="M53 146L53 147L59 147L53 146z"/>
<path style="fill:#6696a6; stroke:none;" d="M59 146L60 147L59 146M64 146L65 147L64 146z"/>
<path style="fill:#dcaa48; stroke:none;" d="M65 146L65 147L74 147L65 146M76.6667 146.333L77.3333 146.667L76.6667 146.333M84.6667 146.333L85.3333 146.667L84.6667 146.333z"/>
<path style="fill:#6696a6; stroke:none;" d="M86 146L87 147L86 146M89 146L90 147L89 146z"/>
<path style="fill:#dcaa48; stroke:none;" d="M90 146L91 147L90 146M94 146L95 147L94 146z"/>
<path style="fill:#6696a6; stroke:none;" d="M95 146L96 147L95 146M104 146L105 147L104 146M107 146L108 147L107 146z"/>
<path style="fill:#dcaa48; stroke:none;" d="M108.667 146.333L109.333 146.667L108.667 146.333z"/>
<path style="fill:#6696a6; stroke:none;" d="M117 146L118 147L117 146z"/>
<path style="fill:#dcaa48; stroke:none;" d="M118.667 146.333L119.333 146.667L118.667 146.333z"/>
<path style="fill:#6696a6; stroke:none;" d="M120 146L121 147L120 146z"/>
<path style="fill:#dcaa48; stroke:none;" d="M121.667 146.333L122.333 146.667L121.667 146.333z"/>
<path style="fill:#6696a6; stroke:none;" d="M129 146L130 147L129 146z"/>
<path style="fill:#dcaa48; stroke:none;" d="M130.667 146.333L131.333 146.667L130.667 146.333z"/>
<path style="fill:#6696a6; stroke:none;" d="M133 146L134 147L133 146z"/>
<path style="fill:#dcaa48; stroke:none;" d="M134 146L134 147L137 147L134 146M138.667 146.333L139.333 146.667L138.667 146.333z"/>
<path style="fill:#6696a6; stroke:none;" d="M140.667 146.333L141.333 146.667L140.667 146.333M145 146L146 147L145 146z"/>
<path style="fill:#dcaa48; stroke:none;" d="M146.667 146.333L147.333 146.667L146.667 146.333M150.667 146.333L151.333 146.667L150.667 146.333z"/>
<path style="fill:#6696a6; stroke:none;" d="M158 146L159 147L158 146z"/>
<path style="fill:#dcaa48; stroke:none;" d="M159.667 146.333L160.333 146.667L159.667 146.333z"/>
<path style="fill:#6696a6; stroke:none;" d="M165 146L166 147L165 146z"/>
<path style="fill:#dcaa48; stroke:none;" d="M169 146L170 147L169 146z"/>
<path style="fill:#6696a6; stroke:none;" d="M170 146L171 147L170 146M26 149L26 165L27 165L26 149z"/>
<path style="fill:#f0f0ef; stroke:none;" d="M27 149L27 165L36 163L40 165C43.5451 161.526 45.8395 163.821 50 165L45 149L42 149L39 160C36.6485 152.139 36.1232 149.032 27 149z"/>
<path style="fill:#6696a6; stroke:none;" d="M35 149L36 150L35 149M41 149L42 150L41 149z"/>
<path style="fill:#f0f0ef; stroke:none;" d="M48 149L52 152L52 165L55 165L55 151L59 152C58.0184 147.419 51.8838 149 48 149z"/>
<path style="fill:#6696a6; stroke:none;" d="M59.3333 149.667L59.6667 150.333L59.3333 149.667z"/>
<path style="fill:#f0f0ef; stroke:none;" d="M62 149L58 165C63.2384 162.66 64.7617 162.66 70 165C69.1884 159.504 67.818 150.884 62 149z"/>
<path style="fill:#dcaa48; stroke:none;" d="M65 149L66 150L65 149M36 150L37 151L36 150M41 150L42 151L41 150z"/>
<path style="fill:#6696a6; stroke:none;" d="M45 150L46 151L45 150M47 150L48 151L47 150M61.3333 150.667L61.6667 151.333L61.3333 150.667M37 151L38 152L37 151z"/>
<path style="fill:#dcaa48; stroke:none;" d="M48 151L49 152L48 151M55 151L56 152L55 151M57 151L58 152L57 151z"/>
<path style="fill:#6696a6; stroke:none;" d="M66 151L67 152L66 151z"/>
<path style="fill:#dcaa48; stroke:none;" d="M29 152C29.0005 156.525 28.017 161.346 33 163L33 162L30 162L29 152z"/>
<path style="fill:#040505; stroke:none;" d="M30 152L30 162C36.4714 160.92 36.4714 153.08 30 152z"/>
<path style="fill:#dcaa48; stroke:none;" d="M34 152L35 153L34 152z"/>
<path style="fill:#6696a6; stroke:none;" d="M40 152L41 153L40 152z"/>
<path style="fill:#dcaa48; stroke:none;" d="M66 152L67 153L66 152M40 153L41 154L40 153z"/>
<path style="fill:#6696a6; stroke:none;" d="M46 153L47 154L46 153M43 154L44 155L43 154M60 154L61 155L60 154M63 154L65 156L63 154M67 154L68 155L67 154M39 155L40 156L39 155z"/>
<path style="fill:#040505; stroke:none;" d="M43 155C42.4234 157.711 42.2325 158.395 45 159L43 155M63 155L65 159L63 155z"/>
<path style="fill:#dcaa48; stroke:none;" d="M67 155L68 156L67 155M39 156L40 157L39 156z"/>
<path style="fill:#6696a6; stroke:none;" d="M42 156L43 157L42 156M44.3333 156.667L44.6667 157.333L44.3333 156.667M47 156L48 157L47 156M59 157L60 158L59 157z"/>
<path style="fill:#dcaa48; stroke:none;" d="M62 157L63 158L62 157z"/>
<path style="fill:#6696a6; stroke:none;" d="M38.3333 158.667L38.6667 159.333L38.3333 158.667M62 158C63.5556 159.813 64.4444 159.813 66 158L62 158M68 158L69 159L68 158M42 159L42 160L45 160L42 159M48 159L49 160L48 159M58 160L59 161L58 160z"/>
<path style="fill:#dcaa48; stroke:none;" d="M34 161L35 162L34 161z"/>
<path style="fill:#6696a6; stroke:none;" d="M69 161L70 162L69 161M41 162L41 163L46 163L41 162M49 162L50 163L49 162M61 162L61 163L67 163L61 162z"/>
<path style="fill:#dcaa48; stroke:none;" d="M36 163L37 164L36 163z"/>
<path style="fill:#6696a6; stroke:none;" d="M40 163L41 164L40 163M46 163L47 164L46 163M57.3333 163.667L57.6667 164.333L57.3333 163.667M35 164L36 165L35 164M60 164L61 165L60 164z"/>
<path style="fill:#dcaa48; stroke:none;" d="M67 164L68 165L67 164z"/>
<path style="fill:#6696a6; stroke:none;" d="M70 164L71 165L70 164z"/>
</svg>
